<?xml version="1.0" encoding="UTF-8"?>
<svg id="Layer_1" xmlns="http://www.w3.org/2000/svg" viewBox="0 0 256 184.91">
  <defs>
    <style>
      .cls-1 {
        fill: #be1a2f;
      }

      .cls-2 {
        fill: #e5e5e5;
      }
    </style>
  </defs>
  <g>
    <path class="cls-1" d="M161.4,183.05c-1.29,0-2.39-.57-3-1.55-.65-1.06-.65-2.42,0-3.75,4.96-9.99,7.66-15.7,10.28-21.22,3-6.35,5.84-12.35,11.77-24.06,1.41-2.79,1.39-4.72,1.05-5.28-.04-.07-.08-.13-.34-.13-1.78,0-6.44,2.91-8.42,7.05l-9.24,19.33c-1,2.09-3.41,3.67-5.59,3.67h-30.41c-1.29,0-2.39-.57-3-1.55-.65-1.06-.65-2.42,0-3.75,18.24-36.69,30.92-62.28,48.47-97.79,2.85-5.76,9.65-10.27,15.48-10.27h46.87c3.19,0,6.1.12,9.33,1.59,5.81,2.65,9.26,8.02,9.48,14.72.14,4.54-1.38,8.06-3.1,11.56-1.32,2.7-2.69,5.73-4.15,8.94-3.23,7.15-6.9,15.24-11.08,21.86-2.96,4.68-5.54,7.11-10.25,9.63-1.67.9-3.37,1.67-5.06,2.31.13.07.25.14.38.21,5.67,3.32,4.1,7.59,2.71,11.35-2.26,6.12-5.42,12.11-8.48,17.89-1.47,2.79-2.87,5.42-4.16,8.05l-3.95,8.07c-3.33,6.81-5.13,10.48-9.6,19.47-1.03,2.08-3.43,3.64-5.58,3.64h-30.41ZM190.32,99.97c-.7,1.97-.57,3.23-.3,3.61.03.04.07.1.33.1,1.9,0,6.38-3.05,8.45-7.09.92-1.8,1.84-3.6,2.77-5.4,1.36-2.65,2.72-5.29,4.06-7.95,1.42-2.8,1.4-4.74,1.06-5.3-.04-.07-.08-.13-.35-.13h0c-1.29,0-4.38,1.62-6.86,4.66-.91,1.11-1.56,2.36-2.21,3.65l-6.94,13.85Z"/>
    <path class="cls-2" d="M235.32,45.6c3,0,5.62.09,8.55,1.43,5.24,2.39,8.2,7.09,8.39,13.08.13,4.02-1.16,7.11-2.91,10.68-4.33,8.82-9.18,21.21-15.13,30.62-2.7,4.27-5.05,6.57-9.55,8.99-4.86,2.61-10.15,4.19-14.71,4.3h3.52c2.68,0,4.83.52,6.44,1.47,4.35,2.55,3.3,5.31,1.88,9.16-3.24,8.78-8.51,17.48-12.54,25.71-6.39,13.04-7.6,15.57-13.55,27.54-.71,1.43-2.47,2.61-3.91,2.61h-30.41c-1.44,0-2.03-1.17-1.32-2.61,10.81-21.75,11.08-23.62,22.04-45.27,2.26-4.46,1.83-8.11-.95-8.11h0c-2.78,0-7.95,3.6-10.1,8.11l-9.24,19.33c-.69,1.44-2.47,2.61-3.91,2.61h-30.41c-1.44,0-2.03-1.17-1.32-2.61,17.9-36.01,30.66-61.75,48.47-97.8,2.51-5.07,8.71-9.24,13.81-9.24h45.49c.47,0,.93,0,1.38,0M190.35,105.54h0c2.78,0,7.83-3.66,10.1-8.11,2.27-4.46,4.58-8.89,6.84-13.35,2.26-4.47,1.84-8.14-.96-8.14h0c-2.18,0-5.77,2.23-8.3,5.34-1.01,1.24-1.72,2.58-2.43,4l-6.99,13.95c-1.31,3.6-.66,6.31,1.74,6.31M235.32,41.87h-.68s-.7,0-.7,0h-45.49c-6.48,0-14.02,4.97-17.15,11.31-17.47,35.35-30.15,60.94-48.47,97.79-.95,1.92-.92,3.95.08,5.56.96,1.55,2.63,2.43,4.58,2.43h30.41c2.91,0,5.97-1.99,7.28-4.73l9.24-19.33c1.18-2.47,3.53-4.43,5.2-5.38-.16.56-.41,1.26-.83,2.09-5.94,11.74-8.78,17.75-11.79,24.11-2.61,5.52-5.3,11.22-10.26,21.19-.95,1.92-.93,3.94.08,5.56.96,1.55,2.63,2.43,4.58,2.43h30.41c2.86,0,5.91-1.97,7.25-4.68,4.45-8.96,6.26-12.66,9.55-19.37l4.01-8.18c1.28-2.61,2.66-5.23,4.13-8,3.09-5.84,6.28-11.88,8.56-18.06l.02-.06c1.2-3.25,2.92-7.92-1.07-11.78.73-.34,1.46-.71,2.17-1.09,4.97-2.67,7.83-5.36,10.94-10.28,4.25-6.73,7.94-14.89,11.2-22.1,1.45-3.19,2.81-6.21,4.12-8.88,1.82-3.72,3.45-7.47,3.29-12.44-.24-7.44-4.09-13.4-10.56-16.35-3.57-1.63-6.69-1.76-10.1-1.76h0ZM192.04,100.69l6.88-13.74c.6-1.19,1.2-2.34,1.99-3.31,1.27-1.56,2.75-2.7,3.88-3.34-.16.57-.42,1.27-.84,2.1-1.34,2.66-2.71,5.31-4.07,7.95-.92,1.79-1.85,3.59-2.76,5.39-1.29,2.52-3.6,4.48-5.24,5.44.04-.15.09-.31.15-.48h0Z"/>
  </g>
  <g>
    <path class="cls-1" d="M20.68,125.52c-3.19,0-6.1-.12-9.33-1.59-5.81-2.65-9.26-8.02-9.48-14.72-.15-4.54,1.38-8.06,3.1-11.56l5.96-12.15c10.59-21.61,21.55-43.95,32.46-65.9,1.03-2.08,3.44-3.65,5.6-3.65h30.5c1.3,0,2.39.57,3,1.55.66,1.06.65,2.43-.01,3.76-3.99,8.02-7.9,15.97-11.79,23.89-6.57,13.34-13.36,27.13-20.31,40.87-1.42,2.8-1.4,4.74-1.06,5.3.04.07.08.13.35.13,1.94,0,6.5-3.18,8.47-7.11l18.62-37.17c1.04-2.08,3.45-3.64,5.59-3.64h30.5c1.29,0,2.39.56,3,1.55.66,1.06.66,2.43,0,3.76l-32.82,66.42c-2.85,5.76-9.65,10.27-15.48,10.27H20.68Z"/>
    <path class="cls-2" d="M79.49,17.81c1.44,0,2.04,1.18,1.32,2.62-10.84,21.81-21.1,43.03-32.1,64.75-2.27,4.48-1.84,8.14.96,8.14h0c2.79,0,7.89-3.65,10.13-8.14l18.62-37.17c.72-1.44,2.48-2.62,3.93-2.62h30.5c1.44,0,2.04,1.18,1.32,2.62l-32.82,66.42c-2.51,5.07-8.71,9.24-13.81,9.24H22.06c-.47,0-.93,0-1.38,0-3,0-5.62-.09-8.55-1.43-5.24-2.39-8.2-7.09-8.39-13.08-.13-4.02,1.16-7.11,2.91-10.68,12.77-26.03,25.49-52.05,38.41-78.04.72-1.44,2.48-2.62,3.93-2.62h30.5M79.49,14.08h-30.5c-2.86,0-5.92,1.97-7.26,4.68-10.89,21.91-21.82,44.21-32.4,65.78l-6.02,12.28c-1.82,3.72-3.45,7.47-3.29,12.44.24,7.44,4.09,13.4,10.56,16.35,3.57,1.63,6.69,1.76,10.1,1.76h.68s.7,0,.7,0h45.49c6.48,0,14.02-4.97,17.15-11.31l32.82-66.42c.95-1.92.92-3.95-.09-5.57-.96-1.54-2.63-2.43-4.58-2.43h-30.5c-2.85,0-5.9,1.97-7.26,4.67l-18.62,37.17c-1.27,2.54-3.62,4.51-5.27,5.46.16-.57.42-1.27.84-2.11,6.96-13.74,13.74-27.53,20.31-40.87,3.84-7.8,7.81-15.87,11.8-23.9.95-1.92.93-3.95-.07-5.56-.96-1.55-2.63-2.44-4.59-2.44h0Z"/>
  </g>
  <g>
    <path class="cls-1" d="M98.18,125.61c-2.54,0-4.64-1.05-5.77-2.89-1.24-2.02-1.17-4.73.2-7.44l38.05-75.23h-7.47c-2.43,0-3.53-1.21-3.97-1.93-.85-1.39-.75-3.26.28-5.27l13.1-25.49c1.75-3.4,6.16-5.5,9.25-5.5h94.58c2.43,0,3.53,1.21,3.97,1.93.85,1.39.75,3.27-.28,5.27l-13.1,25.49c-1.74,3.4-6.16,5.5-9.25,5.5h-47.52l-38.9,76.91c-2.45,4.85-8.18,8.64-13.05,8.64h-20.11Z"/>
    <path class="cls-2" d="M236.42,3.73c2.65,0,3.35,1.92,2.04,4.49l-13.1,25.49c-1.32,2.56-4.96,4.49-7.6,4.49h-48.67l-39.42,77.94c-2.11,4.16-7.18,7.62-11.38,7.62h-20.11c-4.21,0-6.02-3.46-3.91-7.62l39.41-77.94h-10.5c-2.64,0-3.36-1.9-2.04-4.49l13.1-25.49c1.33-2.58,4.95-4.49,7.6-4.49h94.58M236.42,0h-94.58c-3.72,0-8.82,2.44-10.91,6.51l-13.1,25.49c-1.81,3.52-.91,5.95-.21,7.09.64,1.05,2.22,2.82,5.57,2.82h4.43l-36.68,72.52c-1.67,3.29-1.71,6.67-.12,9.25,1.48,2.4,4.16,3.78,7.36,3.78h20.11c5.6,0,11.92-4.16,14.71-9.67l38.38-75.89h46.38c3.72,0,8.82-2.44,10.91-6.51l13.1-25.49c1.81-3.52.91-5.95.21-7.09-.64-1.05-2.22-2.82-5.56-2.82h0Z"/>
  </g>
</svg>