<?xml version="1.0" encoding="UTF-8"?>
<svg xmlns="http://www.w3.org/2000/svg" version="1.1" viewBox="0 0 268.3 197.3">
  <defs>
    <style>
      .cls-1 {
        fill: #e12030;
      }

      .cls-2 {
        fill: #fff;
      }
    </style>
  </defs>
  <!-- Generator: Adobe Illustrator 28.7.1, SVG Export Plug-In . SVG Version: 1.2.0 Build 142)  -->
  <g>
    <g id="Layer_1">
      <g id="Layer_1-2" data-name="Layer_1">
        <g id="Layer_1-2">
          <g>
            <path class="cls-1" d="M26.8,135.7c-3.6,0-7.1-.2-11-2-7.3-3.4-11.6-10-11.8-18.2-.1-5.5,1.7-9.8,3.5-13.5l6-12.2c2.2-4.5,4.5-9.1,6.7-13.7,8.4-17.2,17.1-34.9,25.8-52.2,1.6-3.4,5.4-5.8,9.2-5.8h30.5c2.6,0,5,1.2,6.3,3.3,1.5,2.4,1.6,5.1.2,7.8-2.7,5.4-5.3,10.7-7.9,16.1-.3.6-.6,1.3-.9,1.9,1.6-.9,3.3-1.4,5.1-1.4h30.5c2.6,0,5,1.2,6.3,3.3,1.5,2.4,1.6,5.1.2,7.8l-32.8,66.4c-3.4,7.1-11.7,12.5-19.1,12.5H26.7h.1Z"/>
            <path class="cls-2" d="M85.7,22.1c1.3,0,2.4.6,3,1.5.7,1.1.7,2.4,0,3.8-4,8-7.9,16-11.8,23.9-6.6,13.3-13.4,27.1-20.3,40.9s-1.4,4.7-1.1,5.3h.3c1.9,0,6.5-3.2,8.5-7.1l18.6-37.2c1-2.1,3.4-3.6,5.6-3.6h30.5c1.3,0,2.4.6,3,1.5.7,1.1.7,2.4,0,3.8l-32.8,66.4c-2.8,5.8-9.7,10.3-15.5,10.3H26.8c-3.2,0-6.1,0-9.3-1.6-5.8-2.7-9.3-8-9.5-14.7-.1-4.5,1.4-8.1,3.1-11.6l6-12.2c10.6-21.6,21.5-44,32.5-65.9,1-2.1,3.4-3.6,5.6-3.6h30.5M85.7,14.1h-30.5c-5.3,0-10.4,3.2-12.8,8.1-8.7,17.3-17.4,35-25.8,52.2-2.3,4.6-4.5,9.2-6.7,13.7l-6,12.2C1.8,104.7-.2,109.5,0,115.6H0c.3,9.6,5.6,17.7,14.1,21.7,4.6,2.2,8.8,2.3,12.7,2.3h46.9c8.9,0,18.6-6.4,22.7-14.8l32.8-66.4c1.9-3.9,1.8-8.1-.4-11.6h0c-2.1-3.3-5.7-5.2-9.7-5.2h-28.5c1.8-3.6,3.5-7.2,5.3-10.7,2-3.9,1.8-8.2-.4-11.7h0c-2.1-3.3-5.7-5.2-9.7-5.2h-.1Z"/>
          </g>
          <g>
            <path class="cls-1" d="M104.3,135.8c-3.8,0-7.1-1.7-9.1-4.7,0,0,0-.1,0-.2-2-3.3-1.9-7.4,0-11.3l35.1-69.4h-1c-3,0-5.6-1.3-7.3-3.6,0,0-.2-.2-.2-.3-1.5-2.7-1.5-6,.2-9.2l13.1-25.5c2.6-5,8.5-7.7,12.8-7.7h94.6c3,0,5.6,1.3,7.3,3.6,0,0,0,.1.1.2,1.7,2.7,1.7,6.1-.1,9.3l-13.1,25.5c-2.4,4.8-8.4,7.7-12.8,7.7h-45l-37.8,74.7c-3.1,6.1-10.2,10.8-16.7,10.8h-20.1.1Z"/>
            <path class="cls-2" d="M242.5,8.1c2.4,0,3.5,1.2,4,1.9.9,1.4.8,3.3-.3,5.3l-13.1,25.5c-1.7,3.4-6.2,5.5-9.2,5.5h-47.5l-38.9,76.9c-2.4,4.8-8.2,8.6-13.1,8.6h-20.1c-2.5,0-4.6-1.1-5.8-2.9-1.2-2-1.2-4.7.2-7.4l38.1-75.2h-7.5c-2.4,0-3.5-1.2-4-1.9-.8-1.4-.8-3.3.3-5.3l13.1-25.5c1.8-3.4,6.2-5.5,9.2-5.5h94.6M242.5,0h-94.6c-5.5,0-12.9,3.4-16.3,9.8h0l-13.1,25.4c-2.3,4.3-2.4,9.1-.2,13,.1.2.3.5.4.7,1.4,2,3.3,3.4,5.5,4.3l-32.7,64.5c-2.6,5.1-2.6,10.7,0,15.2,0,.1,0,.2.2.3,2.7,4,7.4,6.5,12.5,6.5h20.1c8,0,16.5-5.5,20.3-13l36.7-72.5h42.6c5.5,0,13.1-3.5,16.3-9.9l13-25.4c2.4-4.5,2.4-9.5,0-13.4,0-.1-.1-.2-.2-.3-2.4-3.4-6.2-5.3-10.5-5.3h0Z"/>
          </g>
          <g>
            <path class="cls-1" d="M167.5,193.3c-2.7,0-5.1-1.3-6.4-3.5h0c-1.2-2.3-1.2-4.9-.2-7.4v-.2c3.5-7.1,5.9-12,7.9-16.1-1.4.8-3,1.2-4.6,1.2h-30.4c-2.7,0-5.1-1.3-6.4-3.5-1.4-2.3-1.5-5-.2-7.7,0,0,36.8-74.3,48.5-97.8,3.6-7.3,11.7-12.5,19.1-12.5h46.9c3.6,0,7.1.2,11,2,7.3,3.4,11.6,10,11.8,18.2.1,5.5-1.7,9.8-3.5,13.5-1.5,3.1-2.8,5.9-4,8.8-3.4,7.6-7.1,15.6-11.4,22.4-3.4,5.3-6.4,8.2-11.6,10.9,2.5,4.3.7,9.1-.3,11.8-2.4,6.5-5.8,12.9-8.7,18.4l-.2.4c-1.4,2.6-2.7,5.1-3.9,7.5l-3.9,8.1c-3.4,6.9-5.2,10.7-9.6,19.6-1.6,3.4-5.4,5.8-9.2,5.8h-29.2c-.5.2-1,.3-1.5.3v-.2Z"/>
            <path class="cls-2" d="M241.5,49.6c3.2,0,6.1,0,9.3,1.6,5.8,2.7,9.3,8,9.5,14.7.1,4.5-1.4,8.1-3.1,11.6-1.3,2.7-2.7,5.7-4.1,8.9-3.2,7.2-6.9,15.2-11.1,21.9-3,4.7-5.5,7.1-10.2,9.6-1.7.9-3.4,1.7-5.1,2.3.1,0,.2,0,.4.2,5.7,3.3,4.1,7.6,2.7,11.3-2.3,6.1-5.4,12.1-8.5,17.9-1.5,2.8-2.9,5.4-4.2,8.1l-3.9,8.1c-3.3,6.8-5.1,10.5-9.6,19.5-1,2.1-3.4,3.6-5.6,3.6h-30.4l-.3.3c-1.3,0-2.4-.6-3-1.6-.6-1.1-.6-2.4,0-3.8,5-10,7.7-15.7,10.3-21.2,3-6.4,5.8-12.4,11.8-24.1,1.4-2.8,1.4-4.7,1.1-5.3h-.3c-1.8,0-6.4,2.9-8.4,7l-9.2,19.3c-1,2.1-3.4,3.7-5.6,3.7h-30.4c-1.3,0-2.4-.6-3-1.6-.7-1.1-.7-2.4,0-3.8,18.2-36.7,30.9-62.3,48.5-97.8,2.9-5.8,9.6-10.3,15.5-10.3h46.9M195.9,109.7h.3c1.9,0,6.4-3.1,8.4-7.1.9-1.8,1.8-3.6,2.8-5.4,1.4-2.7,2.7-5.3,4.1-7.9,1.4-2.8,1.4-4.7,1.1-5.3h-.4c-1.3,0-4.4,1.6-6.9,4.7-.9,1.1-1.6,2.4-2.2,3.7l-6.9,13.8c-.7,2-.6,3.2-.3,3.6M241.5,41.6h-7.3s-6.1,3.9-6.9,3.9c-2,0-37.2.7-37.2.7-6.9,0-9.8-.8-14.7,5s-2.5,3.3-3.5,5.2c-11.6,23.4-21.1,42.6-31.4,63.4l-17.1,34.4c-1.9,3.9-1.8,8.1.4,11.6,2.1,3.4,5.7,5.4,9.8,5.4h28.1c-1.3,2.6-2.8,5.6-4.5,9.1,0,.1-.1.3-.2.4-1.6,3.7-1.5,7.5.3,10.8,0,0,.1.2.2.3,2.1,3.4,5.7,5.5,9.9,5.5s1.5-.1,2.2-.3h28.5c5.3,0,10.4-3.2,12.8-8.1,4.5-8.9,6.3-12.6,9.6-19.5l3.9-8.1c1.2-2.4,2.5-4.9,3.8-7.4l.2-.4c3-5.6,6.4-12.1,8.9-18.9.9-2.3,2.1-5.5,1.8-9.2,0-.7-.2-1.5-.3-2.2,4.1-2.7,7-5.7,10-10.5h0c4.4-7,8.2-15.1,11.6-22.9,1.2-2.8,2.5-5.6,4-8.7,2.1-4.3,4-9.2,3.9-15.2h0c-.3-9.6-5.6-17.7-14.1-21.7-4.6-2.2-8.8-2.3-12.7-2.3h0v-.3Z"/>
          </g>
        </g>
      </g>
    </g>
  </g>
</svg>