<?xml version="1.0" encoding="UTF-8"?><svg xmlns="http://www.w3.org/2000/svg" xmlns:xlink="http://www.w3.org/1999/xlink" viewBox="0 0 180 180"><defs><style>.cls-1{fill:#864d9e;}.cls-2{fill:#bb208e;}.cls-3{isolation:isolate;}.cls-4{fill:none;stroke:url(#linear-gradient);stroke-miterlimit:10;stroke-width:5px;}.cls-5{mix-blend-mode:overlay;}.cls-6{fill:#010101;}.cls-7{fill:#b21f7f;}</style><linearGradient id="linear-gradient" x1="11.83" y1="168.17" x2="168.17" y2="11.83" gradientUnits="userSpaceOnUse"><stop offset="0" stop-color="#ba238e"/><stop offset="1" stop-color="#9e6daf"/></linearGradient></defs><g class="cls-3"><g id="Layer_2"><g id="Layer_1-2"><rect class="cls-4" x="2.5" y="2.5" width="175" height="175" rx="37.89" ry="37.89"/><path class="cls-7" d="M65.18,84.68h-14.64l-22.8-28.96c-.82-.97-1.32-2.22-1.32-3.58,0-3.08,2.54-5.58,5.66-5.58,1.48,0,3.1,0,3.1,0l30,38.12h0Z"/><g class="cls-5"><path class="cls-2" d="M65.18,84.68h-14.64l-22.8-28.96c-.82-.97-1.32-2.22-1.32-3.58,0-3.08,2.53-5.58,5.66-5.58,1.48,0,3.1,0,3.1,0l30,38.12h0Z"/></g><path class="cls-1" d="M89.97,107.24c.95,0,1.84-.26,2.6-.72.59-.36,1.09-.83,1.49-1.39l3.87-5.5,12.27-17.47-28.89-36.34c-.75-.94-1.89-1.49-3.1-1.49h-43.86s.04.01.06.01h.29c1.8.13,3.37,1.09,4.31,2.49h0s46.15,58.04,46.15,58.04c0,0,0,0,0,0l.72.91s0,0,0,0c.9.89,2.14,1.44,3.51,1.44h.58-.02,0Z"/><path class="cls-2" d="M115.94,78.06l-4.48,6.37-12.27,17.47-3.87,5.5c-.23.32-.49.61-.78.87-.87.77-2.02,1.23-3.28,1.24h34.75c1.93,0,3.79-.53,5.4-1.48,1.25-.74,2.35-1.75,3.2-2.97l18.96-27h-37.64Z"/><path class="cls-6" d="M20.43,119.7h2.01c.32,0,.59.05.79.14.2.09.36.21.47.35.11.14.19.29.23.45.04.16.06.32.06.45s-.02.29-.06.45c-.04.16-.12.31-.23.45-.11.14-.27.25-.47.34-.2.09-.47.14-.79.14h-1.21v1.73h-.8v-4.5h0ZM21.23,121.83h1.17c.09,0,.18-.01.27-.04.09-.02.18-.07.26-.12.08-.06.14-.13.19-.23.05-.09.07-.21.07-.36s-.02-.27-.06-.37c-.04-.1-.1-.17-.17-.23-.07-.06-.16-.1-.25-.12-.09-.02-.19-.03-.3-.03h-1.18v1.49h0Z"/><path class="cls-6" d="M27.25,119.7h.8v3.82h2.32v.68h-3.12v-4.5Z"/><path class="cls-6" d="M34.7,119.7h.85l1.76,4.5h-.86l-.43-1.19h-1.82l-.43,1.19h-.82l1.75-4.5h0ZM34.42,122.41h1.39l-.68-1.94h-.02l-.69,1.94Z"/><path class="cls-6" d="M39.28,119.7h3.69v.68h-1.45v3.82h-.8v-3.82h-1.44v-.68h0Z"/><path class="cls-6" d="M46.69,119.7h.85l1.76,4.5h-.86l-.43-1.19h-1.82l-.43,1.19h-.82l1.75-4.5h0ZM46.41,122.41h1.39l-.68-1.94h-.02l-.69,1.94Z"/><path class="cls-6" d="M52.29,119.7h3.15v.68h-2.35v1.18h2.06v.64h-2.06v2h-.8v-4.5h0Z"/><path class="cls-6" d="M60.58,119.59c.34,0,.65.06.92.19.27.13.5.3.69.51.19.21.33.46.43.75.1.29.15.59.15.91s-.05.63-.15.91c-.1.29-.24.54-.43.75-.19.21-.42.38-.69.51-.27.12-.58.19-.92.19s-.65-.06-.92-.19c-.27-.12-.5-.29-.69-.51-.19-.21-.33-.46-.43-.75s-.15-.59-.15-.91.05-.62.15-.91c.1-.29.24-.54.43-.75.19-.21.42-.39.69-.51.27-.13.58-.19.92-.19ZM60.58,120.24c-.24,0-.45.05-.63.14-.18.1-.32.23-.43.39-.11.16-.19.35-.25.55-.05.21-.08.42-.08.63s.03.42.08.63c.05.21.14.39.25.55.11.16.26.29.43.39.18.1.39.14.63.14s.45-.05.63-.14c.18-.1.32-.23.43-.39.11-.16.19-.35.25-.55.05-.21.08-.42.08-.63s-.03-.42-.08-.63c-.05-.21-.14-.39-.25-.55-.11-.16-.25-.29-.43-.39-.18-.1-.39-.14-.63-.14Z"/><path class="cls-6" d="M66.05,119.7h2.18c.5,0,.88.11,1.13.32.25.21.38.51.38.9,0,.21-.03.39-.1.53-.06.14-.14.25-.22.34-.09.09-.17.15-.25.19-.08.04-.14.06-.18.08h0c.07.02.14.04.22.08.08.03.15.09.22.16.07.07.12.17.17.29.04.12.07.27.07.44,0,.26.02.51.06.72.04.22.1.37.19.46h-.86c-.06-.1-.09-.2-.11-.32-.01-.12-.02-.23-.02-.34,0-.21-.01-.38-.04-.53-.02-.15-.07-.27-.14-.37-.07-.1-.16-.17-.28-.22-.12-.05-.27-.07-.45-.07h-1.18v1.85h-.8v-4.5h0ZM66.85,121.75h1.31c.26,0,.45-.06.58-.18.13-.12.2-.3.2-.54,0-.14-.02-.26-.06-.35-.04-.09-.1-.16-.18-.21-.07-.05-.16-.08-.26-.1-.1-.02-.19-.02-.3-.02h-1.3v1.41h0Z"/><path class="cls-6" d="M73.1,119.7h1.12l1.26,3.53h.01l1.23-3.53h1.11v4.5h-.76v-3.48h-.01l-1.27,3.48h-.66l-1.27-3.48h-.01v3.48h-.76v-4.5Z"/><path class="cls-6" d="M82.57,119.7h.85l1.76,4.5h-.86l-.43-1.19h-1.82l-.43,1.19h-.82l1.75-4.5h0ZM82.29,122.41h1.39l-.68-1.94h-.02l-.69,1.94Z"/><path class="cls-6" d="M93.16,119.7l2.4,3.65h.01v-3.65h.58v4.5h-.66l-2.38-3.61h-.01v3.61h-.58v-4.5h.65Z"/><path class="cls-6" d="M101.6,119.7l1.78,4.5h-.67l-.5-1.36h-1.93l-.51,1.36h-.62l1.78-4.5h.67ZM102.02,122.34l-.76-2.1h-.01l-.77,2.1h1.55Z"/><path class="cls-6" d="M109.15,120.34c-.23-.16-.51-.24-.83-.24-.27,0-.51.05-.7.15-.19.1-.35.24-.48.41-.13.17-.22.36-.28.58-.06.22-.09.45-.09.68,0,.26.03.5.09.73.06.23.15.43.28.6.13.17.29.31.48.41.2.1.43.15.7.15.2,0,.38-.03.53-.1.16-.07.29-.16.4-.27.11-.12.2-.25.27-.41.06-.16.1-.33.12-.52h.61c-.06.57-.26,1.01-.59,1.32-.34.32-.8.47-1.38.47-.35,0-.66-.06-.93-.18-.27-.12-.48-.28-.66-.5-.17-.21-.31-.46-.39-.74-.09-.29-.13-.59-.13-.92s.05-.64.14-.92c.09-.29.23-.54.41-.75.18-.21.41-.38.68-.51.27-.12.58-.19.93-.19.24,0,.46.03.68.09.21.06.4.16.57.28.17.12.3.27.42.46.11.18.18.39.22.63h-.61c-.07-.32-.22-.56-.45-.72h0Z"/><path class="cls-6" d="M114.19,119.7v4.5h-.61v-4.5h.61Z"/><path class="cls-6" d="M117.65,121.07c.09-.28.23-.53.41-.75.18-.22.41-.39.68-.52.27-.13.59-.2.95-.2s.68.07.95.2c.27.13.5.3.68.52.18.22.32.47.41.75.09.28.14.58.14.89s-.05.6-.14.89c-.09.28-.23.54-.41.75-.18.22-.41.39-.68.52-.27.13-.59.19-.95.19s-.68-.06-.95-.19c-.27-.13-.5-.3-.68-.52-.18-.22-.32-.47-.41-.75-.09-.28-.14-.58-.14-.89s.05-.6.14-.89ZM118.21,122.62c.06.22.15.42.28.6.13.18.29.32.49.43.2.11.44.16.72.16s.52-.05.72-.16c.2-.11.36-.25.49-.43s.22-.38.28-.6c.06-.22.09-.44.09-.67s-.03-.45-.09-.67c-.06-.22-.15-.42-.28-.6-.13-.18-.29-.32-.49-.43-.2-.11-.44-.16-.72-.16s-.52.05-.72.16c-.2.11-.36.25-.49.43-.13.18-.22.38-.28.6-.06.22-.09.44-.09.67s.03.45.09.67Z"/><path class="cls-6" d="M125.83,119.7l2.4,3.65h.01v-3.65h.58v4.5h-.66l-2.38-3.61h-.01v3.61h-.58v-4.5h.65Z"/><path class="cls-6" d="M134.27,119.7l1.78,4.5h-.67l-.5-1.36h-1.93l-.51,1.36h-.62l1.78-4.5h.67ZM134.69,122.34l-.76-2.1h-.01l-.77,2.1h1.55Z"/><path class="cls-6" d="M139.66,119.7v4h2.42v.5h-3.02v-4.5h.61Z"/><path class="cls-6" d="M151.07,119.7c.7,0,1.24.18,1.62.53.38.35.57.89.57,1.61,0,.38-.04.71-.13,1.01-.09.29-.22.54-.4.74-.18.2-.41.35-.68.46-.28.11-.6.16-.98.16h-1.57v-4.5h1.57ZM151.12,123.7c.07,0,.15,0,.26-.02.1-.01.21-.04.33-.08.12-.04.23-.1.34-.17.11-.08.21-.18.3-.31.09-.13.16-.29.22-.49.06-.2.09-.43.09-.71s-.03-.51-.08-.72c-.05-.21-.14-.39-.26-.54-.12-.15-.28-.26-.47-.34-.19-.08-.43-.12-.71-.12h-1.02v3.49h1.01Z"/><path class="cls-6" d="M159.71,119.7v.5h-2.54v1.43h2.37v.5h-2.37v1.56h2.56v.5h-3.17v-4.5h3.15,0Z"/><path class="cls-6" d="M20.27,129.48v-1.36h6.13v1.36h-2.24v6.02h-1.64v-6.02h-2.24Z"/><path class="cls-6" d="M35.48,128.11c.34,0,.64.05.91.16s.5.25.69.44c.19.19.34.4.44.65.1.24.15.51.15.79,0,.43-.09.81-.28,1.13-.19.32-.49.56-.91.72v.02c.2.06.37.14.5.25.13.11.24.25.32.4.08.16.14.33.18.51.04.19.06.37.08.56,0,.12.01.25.02.41,0,.16.02.32.04.49.02.16.05.32.08.47.04.15.1.27.17.38h-1.64c-.09-.23-.15-.51-.17-.84-.02-.32-.05-.63-.09-.93-.06-.39-.17-.67-.36-.85-.18-.18-.48-.27-.89-.27h-1.64v2.88h-1.64v-7.38h4.03,0ZM34.89,131.45c.38,0,.66-.08.85-.25.19-.16.28-.43.28-.81s-.09-.62-.28-.78c-.19-.16-.47-.24-.85-.24h-1.8v2.08h1.8Z"/><path class="cls-6" d="M46.93,128.11l2.8,7.38h-1.71l-.57-1.64h-2.8l-.59,1.64h-1.66l2.83-7.38h1.69ZM47.03,132.64l-.94-2.71h-.02l-.97,2.71h1.94Z"/><path class="cls-6" d="M56.2,128.11l3.12,4.95h.02v-4.95h1.54v7.38h-1.64l-3.11-4.94h-.02v4.94h-1.54v-7.38h1.63Z"/><path class="cls-6" d="M67.78,133.67c.09.17.21.31.36.42.15.11.33.19.53.24.2.05.41.08.63.08.15,0,.3-.01.47-.04.17-.02.32-.07.47-.14.15-.07.27-.16.37-.28.1-.12.15-.27.15-.46,0-.2-.06-.36-.19-.49-.13-.12-.3-.23-.51-.31-.21-.08-.45-.16-.71-.22-.27-.06-.53-.13-.81-.21-.28-.07-.55-.15-.82-.25-.27-.1-.5-.23-.71-.39-.21-.16-.38-.36-.51-.59s-.19-.53-.19-.86c0-.38.08-.71.25-.99s.38-.51.64-.7c.27-.19.57-.32.9-.41.34-.09.67-.13,1.01-.13.39,0,.77.04,1.13.13.36.09.68.23.96.42.28.19.5.44.67.74.16.3.25.66.25,1.09h-1.59c-.01-.22-.06-.4-.14-.55-.08-.14-.19-.26-.32-.34-.13-.08-.28-.14-.46-.18-.17-.03-.36-.05-.56-.05-.13,0-.27.01-.4.04-.13.03-.25.08-.36.14-.11.07-.2.16-.27.26-.07.1-.1.23-.1.39,0,.14.03.26.08.35.06.09.17.17.33.25.16.08.39.15.68.23.29.08.67.17,1.14.29.14.03.33.08.58.15.25.07.49.19.74.35.24.16.46.37.63.64.18.27.27.6.27,1.02,0,.34-.07.65-.2.94-.13.29-.33.54-.59.75-.26.21-.59.37-.97.49s-.84.18-1.35.18c-.41,0-.81-.05-1.2-.15-.39-.1-.73-.26-1.03-.47-.3-.21-.53-.49-.71-.82-.17-.33-.26-.72-.25-1.18h1.59c0,.25.05.46.14.63h0Z"/><path class="cls-6" d="M80.89,128.11c.47,0,.87.07,1.2.2.33.13.6.31.8.53.21.22.36.47.45.76.09.28.14.58.14.88s-.05.59-.14.87c-.09.29-.24.54-.45.76-.21.22-.47.4-.8.53-.33.13-.73.2-1.2.2h-1.73v2.65h-1.64v-7.38h3.37ZM80.43,131.59c.19,0,.37-.01.54-.04.17-.03.33-.08.46-.16.13-.08.24-.19.32-.34.08-.14.12-.33.12-.57s-.04-.42-.12-.57c-.08-.14-.19-.26-.32-.34-.13-.08-.29-.13-.46-.16-.17-.03-.36-.04-.54-.04h-1.28v2.21h1.28Z"/><path class="cls-6" d="M91.64,128.11l2.8,7.38h-1.71l-.57-1.64h-2.8l-.59,1.64h-1.66l2.83-7.38h1.69ZM91.74,132.64l-.94-2.71h-.02l-.97,2.71h1.94Z"/><path class="cls-6" d="M103.32,128.11c.34,0,.64.05.91.16s.5.25.69.44c.19.19.34.4.44.65.1.24.15.51.15.79,0,.43-.09.81-.28,1.13-.19.32-.49.56-.91.72v.02c.2.06.37.14.5.25.13.11.24.25.32.4.08.16.14.33.18.51.04.19.06.37.08.56,0,.12.01.25.02.41,0,.16.02.32.04.49.02.16.04.32.08.47.04.15.1.27.17.38h-1.65c-.09-.23-.15-.51-.17-.84-.02-.32-.05-.63-.09-.93-.06-.39-.17-.67-.36-.85-.18-.18-.48-.27-.89-.27h-1.64v2.88h-1.65v-7.38h4.03ZM102.73,131.45c.38,0,.66-.08.85-.25.19-.16.28-.43.28-.81s-.09-.62-.28-.78c-.19-.16-.47-.24-.85-.24h-1.8v2.08h1.8Z"/><path class="cls-6" d="M116.63,128.11v1.36h-3.95v1.58h3.63v1.26h-3.63v1.81h4.03v1.36h-5.68v-7.38h5.59Z"/><path class="cls-6" d="M123.65,128.11l3.12,4.95h.02v-4.95h1.54v7.38h-1.65l-3.11-4.94h-.02v4.94h-1.54v-7.38h1.63Z"/><path class="cls-6" d="M138.77,130.08c-.1-.16-.22-.29-.37-.41-.15-.12-.31-.21-.5-.27-.19-.07-.38-.1-.58-.1-.37,0-.68.07-.94.21-.26.14-.47.33-.63.57-.16.24-.28.51-.35.81-.07.3-.11.62-.11.94s.04.61.11.9c.07.29.19.56.35.79.16.23.37.42.63.56.26.14.57.21.94.21.5,0,.9-.15,1.18-.46.28-.3.46-.7.52-1.2h1.59c-.04.46-.15.88-.32,1.25-.17.37-.4.69-.69.95-.29.26-.62.46-1.01.6-.38.14-.81.21-1.27.21-.57,0-1.09-.1-1.54-.3-.46-.2-.84-.47-1.16-.81-.31-.34-.55-.75-.72-1.21-.17-.47-.25-.97-.25-1.5s.08-1.06.25-1.54c.17-.47.41-.88.72-1.24.31-.35.7-.63,1.16-.83.46-.2.97-.3,1.54-.3.41,0,.8.06,1.17.18.37.12.69.29.99.51.29.22.53.5.72.83.19.33.31.71.36,1.14h-1.59c-.03-.19-.09-.36-.19-.51h0Z"/><path class="cls-6" d="M147.57,128.11v7.38h-1.65v-7.38h1.65Z"/><path class="cls-6" d="M156.93,128.11l2.8,7.38h-1.71l-.57-1.64h-2.8l-.59,1.64h-1.66l2.83-7.38h1.69ZM157.03,132.64l-.94-2.71h-.02l-.97,2.71h1.94,0Z"/></g></g></g></svg>