<?xml version="1.0" encoding="UTF-8"?><svg xmlns="http://www.w3.org/2000/svg" xmlns:xlink="http://www.w3.org/1999/xlink" viewBox="0 0 180 180"><defs><style>.cls-1{fill:#231f20;}.cls-2{fill:#864d9e;}.cls-3{fill:#bb208e;}.cls-4{isolation:isolate;}.cls-5{fill:none;stroke:url(#linear-gradient);stroke-miterlimit:10;stroke-width:5px;}.cls-6{mix-blend-mode:overlay;}.cls-7{fill:#b21f7f;}</style><linearGradient id="linear-gradient" x1="11.83" y1="168.17" x2="168.17" y2="11.83" gradientUnits="userSpaceOnUse"><stop offset="0" stop-color="#ba238e"/><stop offset="1" stop-color="#9e6daf"/></linearGradient></defs><g class="cls-4"><g id="Layer_2"><g id="Layer_1-2"><rect class="cls-5" x="2.5" y="2.5" width="175" height="175" rx="37.89" ry="37.89"/><path class="cls-7" d="M65.18,76.61h-14.64l-22.8-28.96c-.82-.97-1.32-2.22-1.32-3.58,0-3.08,2.54-5.58,5.66-5.58,1.48,0,3.1,0,3.1,0l30,38.12h0Z"/><g class="cls-6"><path class="cls-3" d="M65.18,76.61h-14.64l-22.8-28.96c-.82-.97-1.32-2.22-1.32-3.58,0-3.08,2.53-5.58,5.66-5.58,1.48,0,3.1,0,3.1,0l30,38.12h0Z"/></g><path class="cls-2" d="M89.97,99.17c.95,0,1.84-.26,2.6-.72.59-.36,1.09-.83,1.49-1.39l3.87-5.5,12.27-17.47-28.89-36.34c-.75-.94-1.89-1.49-3.1-1.49h-43.86s.04.01.06.01h.29c1.8.13,3.37,1.09,4.31,2.49h0s46.15,58.04,46.15,58.04c0,0,0,0,0,0l.72.91s0,0,0,0c.9.89,2.14,1.44,3.51,1.44h.58-.02,0Z"/><path class="cls-3" d="M115.94,69.99l-4.48,6.37-12.27,17.47-3.87,5.5c-.23.32-.49.61-.78.87-.87.77-2.02,1.23-3.28,1.24h34.75c1.93,0,3.79-.53,5.4-1.48,1.25-.74,2.35-1.75,3.2-2.97l18.96-27h-37.64Z"/><path class="cls-1" d="M41.91,114.94c-.16-1.12-1.23-1.97-2.45-1.97-2.22,0-3.05,1.89-3.05,3.86s.83,3.76,3.05,3.76c1.51,0,2.36-1.04,2.55-2.52h2.39c-.25,2.8-2.19,4.6-4.94,4.6-3.48,0-5.52-2.6-5.52-5.84s2.05-5.93,5.52-5.93c2.47,0,4.55,1.45,4.85,4.04h-2.39Z"/><path class="cls-1" d="M55.04,110.89c3.48,0,5.52,2.6,5.52,5.93s-2.05,5.84-5.52,5.84-5.52-2.6-5.52-5.84,2.05-5.93,5.52-5.93ZM55.04,120.59c2.22,0,3.05-1.89,3.05-3.76,0-1.97-.83-3.86-3.05-3.86s-3.05,1.89-3.05,3.86.83,3.76,3.05,3.76Z"/><path class="cls-1" d="M66.18,111.16h2.45l4.69,7.54h.03v-7.54h2.31v11.24h-2.47l-4.67-7.52h-.03v7.52h-2.31v-11.24Z"/><path class="cls-1" d="M83.45,118.67c0,1.5,1.16,2.08,2.49,2.08.87,0,2.19-.25,2.19-1.4,0-1.21-1.68-1.42-3.34-1.86-1.67-.44-3.35-1.09-3.35-3.2,0-2.3,2.17-3.4,4.2-3.4,2.34,0,4.5,1.02,4.5,3.62h-2.39c-.08-1.35-1.04-1.7-2.22-1.7-.79,0-1.7.33-1.7,1.27,0,.87.53.98,3.35,1.7.82.2,3.34.72,3.34,3.27,0,2.06-1.62,3.6-4.67,3.6-2.49,0-4.82-1.23-4.78-4h2.39Z"/><path class="cls-1" d="M105.44,118.15c0,3.04-1.79,4.52-4.8,4.52s-4.78-1.46-4.78-4.52v-6.99h2.47v6.99c0,1.23.31,2.44,2.31,2.44,1.76,0,2.33-.77,2.33-2.44v-6.99h2.47v6.99Z"/><path class="cls-1" d="M111.5,111.16h2.47v9.16h5.48v2.08h-7.95v-11.24Z"/><path class="cls-1" d="M125.5,113.24h-3.37v-2.08h9.21v2.08h-3.37v9.16h-2.47v-9.16Z"/><path class="cls-1" d="M138.46,111.16h2.53l4.2,11.24h-2.57l-.85-2.5h-4.2l-.88,2.5h-2.5l4.26-11.24ZM138.23,118.05h2.91l-1.42-4.12h-.03l-1.46,4.12Z"/><path class="cls-1" d="M28.51,128.4h6.75c3.73,0,5.18,2.37,5.18,4.8s-1.45,4.8-5.18,4.8h-3.46v5.37h-3.29v-14.97ZM31.8,135.45h2.56c1.53,0,2.89-.34,2.89-2.24s-1.36-2.24-2.89-2.24h-2.56v4.49Z"/><path class="cls-1" d="M60.44,137.71c0,4.05-2.39,6.02-6.39,6.02s-6.37-1.95-6.37-6.02v-9.31h3.29v9.31c0,1.64.42,3.25,3.08,3.25,2.35,0,3.1-1.03,3.1-3.25v-9.31h3.29v9.31ZM54.55,127.06h-2.08l2.01-2.98h3.29l-3.23,2.98Z"/><path class="cls-1" d="M68.53,128.4h7.04c2.85,0,4.78.92,4.78,3.71,0,1.47-.73,2.49-2.03,3.12,1.82.52,2.75,1.93,2.75,3.79,0,3.04-2.58,4.34-5.28,4.34h-7.25v-14.97ZM71.82,134.46h3.33c1.15,0,2.01-.52,2.01-1.78,0-1.43-1.09-1.72-2.26-1.72h-3.08v3.5ZM71.82,140.81h3.52c1.3,0,2.43-.42,2.43-1.97s-.96-2.14-2.37-2.14h-3.58v4.11Z"/><path class="cls-1" d="M88.54,128.4h3.29v12.2h7.3v2.77h-10.59v-14.97Z"/><path class="cls-1" d="M106.22,128.4h3.29v14.97h-3.29v-14.97Z"/><path class="cls-1" d="M127.63,133.44c-.21-1.49-1.64-2.62-3.27-2.62-2.96,0-4.07,2.51-4.07,5.13s1.11,5.01,4.07,5.01c2.01,0,3.14-1.38,3.4-3.35h3.19c-.34,3.73-2.91,6.12-6.58,6.12-4.63,0-7.36-3.46-7.36-7.78s2.73-7.9,7.36-7.9c3.29,0,6.06,1.93,6.46,5.39h-3.19Z"/><path class="cls-1" d="M142.52,128.4h3.38l5.6,14.97h-3.42l-1.13-3.33h-5.6l-1.17,3.33h-3.33l5.68-14.97ZM142.21,137.58h3.88l-1.89-5.49h-.04l-1.95,5.49Z"/></g></g></g></svg>