<?xml version="1.0" encoding="UTF-8"?>
<!-- Generator: Adobe Illustrator 24.0.1, SVG Export Plug-In . SVG Version: 6.00 Build 0)  -->
<svg xmlns="http://www.w3.org/2000/svg" xmlns:xlink="http://www.w3.org/1999/xlink" version="1.1" id="Layer_1" x="0px" y="0px" viewBox="0 0 392.4 139.2" style="enable-background:new 0 0 392.4 139.2;" xml:space="preserve">
<style type="text/css">
	.st0{fill:#FFFFFF;}
</style>
<rect class="st0" width="392.4" height="139.2"></rect>
<g>
	<g>
		<path d="M168.5,80.6c4.9-16.3,9.7-32.5,14.6-48.8c-1.7,0-3.2-0.1-4.7,0c-0.3,0-0.7,0.6-0.8,1c-2.4,7.8-4.7,15.7-7.1,23.5    c-2.2,7.2-4.3,14.5-6.5,21.7c-0.1,0.2-0.2,0.5-0.3,0.8c-0.5-0.2-1-0.4-1.5-0.6c-6.6-2.8-12.7-6.4-17.9-11.5    c-4.9-4.8-8.4-10.3-9.6-17.1c-1.1-6.3,0.2-12.1,3.3-17.6c2.9-5.1,7-9.2,11.7-12.6c8.2-5.9,17.4-9.4,27.3-11.5    c9.1-1.9,18.2-2.4,27.5-1.8c1.2,0.1,2.5,0.2,3.9,0.4c-4.3,14.6-8.6,29.1-12.9,43.6c-0.1,0-0.1,0-0.2,0c0-6.1,0-12.2,0-18.4    c-0.3,0-0.6-0.1-0.8-0.1c-2.6,0-5.3,0-7.9,0c-0.5,0-0.9,0-1.1,0.6c-2.2,7.2-4.4,14.5-6.6,21.7c0,0.1,0,0.2,0,0.5    c1.6,0,3.2,0,4.7,0c0.3,0,0.6-0.6,0.7-0.9c1.8-5.8,3.5-11.5,5.2-17.3c0.1-0.3,0.2-0.5,0.5-0.7c0,6.3,0,12.6,0,19c3,0,6,0,8.9,0    c0.3,0,0.6-0.5,0.7-0.9c2.6-8.6,5.1-17.1,7.6-25.7c2-6.7,4-13.4,6-20.1c0.1-0.2,0.1-0.3,0.2-0.6c4.8,0.8,9.5,2,14.1,3.7    c8.1,2.9,15.5,6.9,21.8,12.9c4.9,4.7,8.4,10.2,9.6,17c1.4,7.9-0.8,14.9-5.5,21.2c-5.2,7-12.2,11.7-20,15.2    c-8.4,3.9-17.3,6-26.6,6.9c-12.6,1.3-25.1,0.2-37.3-3.4C169.1,80.8,168.8,80.7,168.5,80.6z M156,31.7c-2.9,0-5.5,0-8.2,0    c-0.9,0-1.2,0.3-1.4,1.1c-1.9,6.5-3.9,12.9-5.9,19.4c-0.2,0.8-0.4,1.5-0.7,2.4c1.6,0,3,0,4.4,0c0.7,0,1-0.3,1.1-0.9    c0.9-3.2,1.9-6.4,2.9-9.5c0.7-2.3,1.4-4.6,2.1-6.9c0.1,0,0.1,0,0.2,0c-0.2,5.7-0.5,11.5-0.7,17.3c2.6,0,5,0,7.4,0    c0.8,0,1.2-0.2,1.6-0.9c1.7-3.1,3.5-6.3,5.2-9.4c1.4-2.4,2.7-4.8,4.1-7.2c0.1,0,0.1,0,0.2,0.1c-1.7,5.8-3.5,11.5-5.2,17.4    c1.6,0,2.9-0.1,4.2,0c0.8,0,1.1-0.3,1.3-1c2-6.6,4-13.2,6-19.8c0.2-0.7,0.4-1.3,0.6-2.1c-3.2,0-6.2,0-9.1,0    c-0.7,0-1.1,0.3-1.5,0.9c-2.8,5-5.6,10.1-8.4,15.1c-0.2,0.3-0.3,0.5-0.5,0.8c-0.1,0-0.1,0-0.2-0.1C155.6,42.9,155.8,37.4,156,31.7    z M231.8,45.1c3.6,0,7.2,0,10.8,0c-1,3.2-1.9,6.3-2.9,9.5c1.6,0,3,0,4.4,0c0.7,0,0.9-0.3,1.1-0.9c2.1-6.9,4.2-13.8,6.3-20.8    c0.1-0.4,0.2-0.7,0.3-1.2c-1.5,0-2.9,0-4.3,0c-0.7,0-1,0.2-1.2,0.9c-0.6,2.1-1.3,4.2-1.8,6.3c-0.2,0.8-0.5,1.1-1.4,1    c-1.4-0.1-2.9,0-4.3,0c-1.8,0-3.5,0-5.4,0c0.8-2.8,1.6-5.4,2.4-8.1c-1.4,0-2.6,0.1-3.8,0c-1-0.1-1.5,0.2-1.8,1.3    c-1.3,4.5-2.7,9-4,13.5c-0.8,2.7-1.6,5.3-2.5,8.2c1.4,0,2.6-0.1,3.8,0c1.1,0.1,1.6-0.3,1.9-1.4C230,50.5,230.9,47.8,231.8,45.1z     M208.9,54.6c1.6,0,2.9-0.1,4.2,0c0.8,0,1.1-0.2,1.3-1c1.6-5.3,3.2-10.5,4.8-15.8c0.2-0.6,0.5-0.9,1.1-0.9c1.8,0,3.7,0,5.5,0    c0.3,0,0.8-0.2,0.9-0.4c0.5-1.6,1-3.2,1.5-4.9c-6.8,0-13.4,0-19.9,0c-0.3,0-0.7,0.2-0.7,0.5c-0.5,1.5-0.9,3.1-1.4,4.8    c2.7,0,5.3,0,8,0C212.4,42.9,210.7,48.7,208.9,54.6z M178.2,30.4c1.7,0,3.2,0,4.8,0c0.2,0,0.5-0.1,0.5-0.3c0.5-1.5,1-3.1,1.6-4.8    c-1.7,0-3.2,0-4.7,0c-0.2,0-0.6,0.3-0.7,0.5C179.2,27.3,178.7,28.8,178.2,30.4z"></path>
	</g>
	<g>
		<rect x="116.9" y="96.7" width="158.9" height="36.9"></rect>
		<g>
			<path class="st0" d="M175.9,120.9l0-9.4l-4.7,7.9h-0.9l-4.7-7.8v9.4h-1.8v-13h1.5l5.4,9.1l5.3-9.1h1.5l0,13H175.9z"></path>
			<path class="st0" d="M188.4,119.3v1.6H179v-13h9.1v1.6h-7.3v4h6.5v1.6h-6.5v4.2H188.4z M183.9,106.9h-1.7l2.5-2.4h2.3     L183.9,106.9z"></path>
			<path class="st0" d="M198.5,120.9l-3.9-5.3l-3.8,5.3h-2.1l4.9-6.6L189,108h2.1l3.6,5l3.6-5h2l-4.6,6.3l4.9,6.7H198.5z"></path>
			<path class="st0" d="M201.5,108h1.9v13h-1.9V108z"></path>
			<path class="st0" d="M204.7,114.5c0-3.8,2.9-6.6,6.9-6.6c2,0,3.7,0.7,4.9,2l-1.2,1.2c-1-1.1-2.2-1.5-3.6-1.5     c-2.9,0-5.1,2.1-5.1,5c0,2.9,2.2,5,5.1,5c1.4,0,2.6-0.5,3.6-1.6l1.2,1.2c-1.2,1.3-2.9,2-4.9,2     C207.6,121.1,204.7,118.3,204.7,114.5z"></path>
			<path class="st0" d="M216.9,114.5c0-3.8,2.9-6.6,6.9-6.6c3.9,0,6.9,2.8,6.9,6.6c0,3.8-2.9,6.6-6.9,6.6     C219.8,121.1,216.9,118.3,216.9,114.5z M228.8,114.5c0-2.9-2.1-5-5-5c-2.9,0-5.1,2.1-5.1,5c0,2.9,2.1,5,5.1,5     C226.6,119.5,228.8,117.3,228.8,114.5z"></path>
		</g>
	</g>
</g>
</svg>
