<?xml version="1.0" encoding="UTF-8"?>
<svg xmlns="http://www.w3.org/2000/svg" version="1.1" viewBox="0 0 36 36">
  <defs>
    <style>
      .cls-1 {
        fill: #ffcc4d;
      }

      .cls-2 {
        fill: #5c913b;
      }

      .cls-3 {
        fill: #006847;
      }

      .cls-4 {
        fill: #c1694f;
      }

      .cls-5 {
        fill: #ce1126;
      }

      .cls-6 {
        fill: #eee;
      }

      .cls-7 {
        fill: #a6d388;
      }

      .cls-8 {
        fill: #55acee;
      }
    </style>
  </defs>
  <!-- Generator: Adobe Illustrator 28.7.1, SVG Export Plug-In . SVG Version: 1.2.0 Build 142)  -->
  <g>
    <g id="Layer_1">
      <path class="cls-3" d="M4,5C1.8,5,0,6.8,0,9v18c0,2.2,1.8,4,4,4h7V5h-7Z"/>
      <path class="cls-5" d="M32,5h-7v26h7c2.2,0,4-1.8,4-4V9c0-2.2-1.8-4-4-4Z"/>
      <path class="cls-6" d="M11,5h14v26h-14V5Z"/>
      <path class="cls-7" d="M23,18c0,2.8-2.2,5-5,5s-5-2.2-5-5h-1c0,3.3,2.7,6,6,6s6-2.7,6-6h-1Z"/>
      <path class="cls-2" d="M13.5,20.3c0-.2-.3-.3-.5-.3,0,0-.1,0-.2,0-.2.1-.3.4-.2.7,0,.2.2.4.3.5h0s0,0,0,0h0s0,0,0,0h0s0,0,0,0h0s0,0,0,0h0s0,0,0,0h0s0,0,0,0h0s0,0,0,0h0s0,0,0,0h0s0,0,0,0h0s0,0,0,0h0s0,0,0,0h0s0,0,0,0h0s0,0,0,0h0s0,0,0,0h0c0,0,.1.2.2.2.1.1.3.2.4.2,0,0,.2,0,.3,0,.2-.2.3-.5.1-.7-.2-.2-.3-.5-.4-.7ZM13,18.7c0-.2,0-.3,0-.5,0-.1,0-.2,0-.4,0-.3-.2-.5-.5-.5h0c-.3,0-.5.2-.5.5,0,.1,0,.2,0,.3h0c0,0,0,0,0,0h0s0,0,0,0h0s0,0,0,0h0s0,0,0,0h0s0,0,0,0h0c0,.2,0,.3,0,.5,0,.3.3.4.5.4,0,0,0,0,0,0,.3,0,.5-.3.4-.6ZM18.3,23h0s-.1,0-.1,0c-.2,0-.5,0-.7,0,0,0,0,0,0,0-.2,0-.5.2-.5.5,0,.3.2.5.4.5h.1s0,0,0,0h0s0,0,0,0h0s0,0,0,0h0s0,0,0,0h0s0,0,0,0h0s0,0,0,0h0s0,0,0,0c.2,0,.3,0,.5,0h0s0,0,0,0h0s0,0,0,0h0s0,0,0,0h0s0,0,0,0h0s0,0,0,0h0s0,0,0,0h0s0,0,0,0h0s0,0,0,0h0s0,0,0,0h0s0,0,0,0h0s0,0,0,0h0s0,0,0,0c0,0,0,0,.1,0,.3,0,.5-.3.5-.5,0-.3-.2-.5-.5-.5ZM15.9,22.5c-.3-.1-.5-.3-.7-.4,0,0-.2,0-.3,0-.2,0-.3,0-.4.2-.2.2,0,.5.1.7h0s0,0,0,0h0s0,0,0,0h0c.3.2.5.3.8.5,0,0,.2,0,.2,0,.2,0,.4-.1.4-.3.1-.3,0-.5-.2-.7ZM20.9,22.1c0,0-.2,0-.2,0-.2.1-.5.3-.7.4-.3.1-.4.4-.3.7,0,.2.3.3.5.3,0,0,.1,0,.2,0h.1c0,0,0,0,0,0h0s0,0,0,0h0s0,0,0,0h0s0,0,0,0h0s0,0,0,0h0s0,0,0,0h0s0,0,0,0h0s0,0,0,0h0s0,0,0,0h0s0,0,0,0h0s0,0,0,0h0s0,0,0,0h0s0,0,0,0h0s0,0,0,0h0s0,0,0,0h0s0,0,0,0h0s0,0,0,0h0s0,0,0,0h0s0,0,0,0h0s0,0,0,0h0s0,0,0,0h0s0,0,0,0h0s0,0,0,0h0s0,0,0,0h0s0,0,0,0h0s0,0,0,0c0,0,0,0,0,0h0s0,0,0,0h0s0,0,0,0h0s0,0,0,0h0s0,0,0,0h0s0,0,0,0h0s0,0,0,0h0s0,0,0,0h0s0,0,0,0h0s0,0,0,0h0s0,0,0,0h0s0,0,0,0h0s0,0,0,0c0,0,0,0,0,0h0s0,0,0,0h0s0,0,0,0h0s0,0,0,0c0,0,0,0,0,0h0s0,0,0,0h0s0,0,0,0h0s0,0,0,0h0s0,0,0,0h0s0,0,0,0h0s0,0,0,0h0s0,0,0,0h0s0,0,0,0c0,0,0,0,0,0h0s0,0,0,0h0s0,0,0,0h0s0,0,0,0h0s0,0,0,0t0,0h0s0,0,0,0h0s0,0,0,0h0s0,0,0,0h0s0,0,0,0h0c0,0,.1,0,.2-.1.2-.1.3-.5.2-.7-.1-.1-.3-.2-.5-.2ZM23.5,17.5h0c-.3,0-.5.2-.5.5,0,.3,0,.6,0,.8,0,.3.1.5.4.6,0,0,0,0,.1,0,.2,0,.4-.2.5-.4h0s0,0,0,0h0s0,0,0,0h0s0,0,0,0h0s0,0,0,0h0s0,0,0,0h0c0-.1,0-.3,0-.4h0s0,0,0,0h0s0,0,0,0h0s0,0,0,0h0s0,0,0,0h0s0,0,0,0h0s0,0,0,0h0s0,0,0,0h0s0,0,0,0h0c0-.2,0-.3,0-.5,0-.3-.2-.5-.5-.5ZM23.1,20.2c0,0-.2,0-.3,0-.2,0-.3.1-.4.3-.1.2-.3.5-.5.7-.2.2-.1.5,0,.7.1,0,.2.1.3.1.1,0,.3,0,.4-.2.1-.1.2-.3.3-.5,0,0,0,0,0,0h0s0,0,0,0h0s0,0,0,0c0,0,0,0,0,0h0s0,0,0,0h0s0,0,0,0h0s0,0,0,0h0s0,0,0,0h0s0,0,0,0h0s0,0,0,0h0s0,0,0,0h0s0,0,0,0h0s0,0,0,0c0,0,0,0,0,0h0s0,0,0,0c0,0,0,0,0,0h0s0,0,0,0h0s0,0,0,0h0s0,0,0,0h0s0,0,0,0c0,0,0,0,0,0,0,0,0,0,0,0h0s0,0,0,0h0s0,0,0,0c0,0,0,0,0,0,0,0,0,0,0,0h0s0,0,0,0h0s0,0,0,0h0s0,0,0,0h0s0,0,0,0h0s0,0,0,0h0s0,0,0,0h0s0,0,0,0h0s0,0,0,0c0,0,0,0,0,0h0s0,0,0,0h0s0,0,0,0c0,0,0,0,0,0,0,0,0,0,0,0h0s0,0,0,0h0s0,0,0,0h0s0,0,0,0h0s0,0,0,0h0s0,0,0,0h0s0,0,0,0h0s0,0,0,0h0s0,0,0,0h0s0,0,0,0h0s0,0,0,0h0s0,0,0,0c.1-.2,0-.5-.2-.7h0Z"/>
      <ellipse class="cls-8" cx="18" cy="21" rx="3" ry="1"/>
      <ellipse class="cls-1" cx="18.5" cy="21" rx="1.5" ry="1"/>
      <path class="cls-2" d="M19.1,21.3c0,0-.2,0-.2,0-.2-.1-.3-.4-.2-.7.2-.3.3-.6.5-.8-.1,0-.3,0-.4,0-.3,0-.5-.2-.5-.5s.2-.5.5-.5h0c.3,0,.6,0,.9,0,.2,0,.3,0,.4.2,0,0,0,0,0,0,.1,0,.2-.1.3-.2,0,0,.1,0,.2,0h0c.2,0,.3,0,.4,0,.2,0,.3,0,.4.2,0,.1.1.3,0,.4,0,.3-.3.3-.6.4,0,0-.1,0-.2.1-.2.1-.4.1-.6,0,.1.2.1.4,0,.6-.2.2-.3.5-.5.8,0,.2-.3.3-.4.3ZM17.7,19.7s0,0,0,0c-.4,0-.7-.1-1.1-.2-.3,0-.4-.4-.3-.6h0s0,0,0,0c-.1.2-.4.3-.7.2-.3-.2-.6-.4-.9-.7s-.2-.5,0-.7c.2-.2.5-.2.7,0,.2.2.4.4.7.5.2.1.3.4.2.6.1-.2.4-.3.6-.3.3,0,.6.1.9.2.3,0,.5.3.4.6,0,.3-.2.4-.5.4ZM15.2,17.3c-.4,0-1-.2-1.3-.6-.5-.6-.8-1.4-.8-2,0-.2-.1-.3-.3-.3,0,0-.2,0-.3.1,0,.1-.2.2-.3.1-.1,0-.2-.2-.1-.3.2-.3.5-.5.9-.4.4,0,.7.4.7.9,0,.5.2,1.1.6,1.6.2.3.6.4.9.4.2,0,.3,0,.3,0,0-.1-.8-.5-1.1-.7-.3-.1-.3-.3-.4-.5,0-.5.4-.9.9-1.4.2-.2.3-.3.4-.4,0-.1,0-.2,0-.3,0-.2-.4-.4-.7-.5-.3,0-.6-.2-.7-.5-.1-.3,0-.7.2-1.3,0-.1.2-.2.3,0,.1,0,.2.2,0,.3-.3.5-.3.7-.2.8,0,0,.1.2.3.2.4,0,.9.3,1.1.8,0,.2,0,.5-.1.7-.1.1-.3.3-.4.5-.3.3-.7.7-.7.9,0,0,0,0,.1.1.8.4,1.2.7,1.4,1,0,.1,0,.2,0,.4,0,.2-.3.3-.6.3,0,0,0,0-.1,0Z"/>
      <ellipse class="cls-1" cx="19.5" cy="18" rx=".5" ry="1"/>
      <path class="cls-1" d="M17.3,17.2c0,.3-.3.5-.8.5s-.8-.2-.8-.5.3-.5.8-.5.8.2.8.5ZM16.1,12.6c0,.2-.2.5-.6.6s-.8,0-.8-.2c0-.2.2-.5.6-.6.4,0,.8,0,.8.2Z"/>
      <path class="cls-4" d="M22.5,18c0,0,.2-.7.2-1,0,0,0-.5,0-.9,0-.1,0-1.1,0-1.3,0,0,.2,0,.2-.1-.4.1-.5-.8-.9-1.4-.4-.6-.8-.9-1.3-1.2,0,0,0-.2.2-.3-.6.3-1.5-.8-2.8-.7-.3,0-.4,0-.5.2-.2,0-.5,0-.5.4s0,.2.2.2c.2,0,.4,0,.5.3v.3s-.2-.2-.3-.3h0c-.1-.2-.3-.1-.3-.1,0,0-.4-.2-.7-.1v-.2c-.1.2-.2.1-.3.3,0-.1,0-.2-.1-.3-.1.1,0,.3-.1.5,0,0-.1,0-.1,0,0-.1,0-.1,0-.3,0,.1-.2.2-.2.4v-.3c0,.3-.3.5-.6.7,0,.1,0,.1,0,.2h.1c0,0,.2,0,.2,0,0,0,0,0,.1,0,.3,0,.6-.3.9.3-.1.1-.2.3-.2.4,0,0-.1,0,.1,0-.2.2-.4.5-.4.5,0,0,0,0,0,0h0c-.5.5,0,1.1,0,1.4,0,.1,0,0,.2,0,0,.4.3.6.5.9h-.3c0,.1.1.3.2.4h-.2c-.1.1-.2.2-.4.3,0,.2.3.2.5.2v.2c.3,0,.6,0,.6,0h0c0,0,.2,0,.2,0,0,0,.1-.2.1-.4.1.1.2.3.3.5h.1c0,.1.2.3.3.4h.1c0,0,.1,0,.1-.1h0c0,0,.2,0,.2,0h.1s0,.1,0,.1c0,0,.1-.1.1-.2,0,.1,0,0,.1.1v-.2c0,0,.5.4.5.4h.3c.1,0,.4.1.5,0,.3.1.5,0,.5-.1.2,0,.6,0,.6,0,0,0,.2-.1,0-.2-.8-.5-1.9-1.4-2.3-1.6,0-.2-.1-.7-.2-.9v-.2c.4.3.5.3.7.3.2.1.2.3.4.5h.2c-.1-.2-.2-.5-.6-.8.2,0,.4.3.6.5.1.2.2.4.3.6,0,0,.2.2.2,0,0-.3-.2-.8-.2-.8.3.3.3.7.4.9,0,.1.1.3.2.3v-.8c0,0-.2-.3-.2-.3.2.1.3.7.4,1.3,0,.1,0,.2,0,.3,0,0,.1.2.1.1,0,0,0-1,0-1.3,0-.1,0-.3,0-.3,0,.4.2.9.3,1.3v.3h.1c0-.1,0-.4,0-.6v-.9c0,0,0-.3,0-.3,0,0,0,0,.1,0,0,.2,0,.4,0,.6,0,.3,0,.4,0,.8,0,.3,0,.9,0,.9Z"/>
    </g>
  </g>
</svg>