<?xml version="1.0" encoding="UTF-8"?>
<svg xmlns="http://www.w3.org/2000/svg" version="1.1" viewBox="0 0 200 200">
  <defs>
    <style>
      .cls-1 {
        fill: #004ea2;
      }
    </style>
  </defs>
  <!-- Generator: Adobe Illustrator 28.7.1, SVG Export Plug-In . SVG Version: 1.2.0 Build 142)  -->
  <g>
    <g id="Layer_1">
      <path class="cls-1" d="M54.7,156.6c7.8-26.1,15.5-52,23.4-78.1-2.7,0-5.1-.2-7.5,0-.5,0-1.1,1-1.3,1.6-3.8,12.5-7.5,25.1-11.4,37.6-3.5,11.5-6.9,23.2-10.4,34.7-.2.3-.3.8-.5,1.3-.8-.3-1.6-.6-2.4-1-10.6-4.5-20.3-10.2-28.6-18.4-7.8-7.7-13.4-16.5-15.4-27.4-1.8-10.1.3-19.4,5.3-28.2,4.6-8.2,11.2-14.7,18.7-20.2,13.1-9.4,27.8-15,43.7-18.4,14.6-3,29.1-3.8,44-2.9,1.9.2,4,.3,6.2.6-6.9,23.4-13.8,46.6-20.6,69.8h-.3v-29.4c-.5,0-1-.2-1.3-.2h-12.6c-.8,0-1.4,0-1.8,1-3.5,11.5-7,23.2-10.6,34.7v.8h7.5c.5,0,1-1,1.1-1.4,2.9-9.3,5.6-18.4,8.3-27.7.2-.5.3-.8.8-1.1v30.4h14.2c.5,0,1-.8,1.1-1.4,4.2-13.8,8.2-27.4,12.2-41.1,3.2-10.7,6.4-21.4,9.6-32.2.2-.3.2-.5.3-1,7.7,1.3,15.2,3.2,22.6,5.9,13,4.6,24.8,11,34.9,20.6,7.8,7.5,13.4,16.3,15.4,27.2,2.2,12.6-1.3,23.8-8.8,33.9-8.3,11.2-19.5,18.7-32,24.3-13.4,6.2-27.7,9.6-42.6,11-20.2,2.1-40.2.3-59.7-5.4-.6.2-1.1,0-1.6-.2ZM34.7,78.3h-13.1c-1.4,0-1.9.5-2.2,1.8-3,10.4-6.2,20.6-9.4,31-.3,1.3-.6,2.4-1.1,3.8h7c1.1,0,1.6-.5,1.8-1.4,1.4-5.1,3-10.2,4.6-15.2,1.1-3.7,2.2-7.4,3.4-11h.3c-.3,9.1-.8,18.4-1.1,27.7h11.8c1.3,0,1.9-.3,2.6-1.4,2.7-5,5.6-10.1,8.3-15,2.2-3.8,4.3-7.7,6.6-11.5q.2,0,.3.2c-2.7,9.3-5.6,18.4-8.3,27.8,2.6,0,4.6-.2,6.7,0,1.3,0,1.8-.5,2.1-1.6,3.2-10.6,6.4-21.1,9.6-31.7.3-1.1.6-2.1,1-3.4h-14.6c-1.1,0-1.8.5-2.4,1.4-4.5,8-9,16.2-13.4,24.2-.3.5-.5.8-.8,1.3q-.2,0-.3-.2c.2-8.8.5-17.6.8-26.7ZM156,99.8h17.3c-1.6,5.1-3,10.1-4.6,15.2h7c1.1,0,1.4-.5,1.8-1.4,3.4-11,6.7-22.1,10.1-33.3.2-.6.3-1.1.5-1.9h-6.9c-1.1,0-1.6.3-1.9,1.4-1,3.4-2.1,6.7-2.9,10.1-.3,1.3-.8,1.8-2.2,1.6-2.2-.2-4.6,0-6.9,0h-8.6c1.3-4.5,2.6-8.6,3.8-13-2.2,0-4.2.2-6.1,0-1.6-.2-2.4.3-2.9,2.1-2.1,7.2-4.3,14.4-6.4,21.6-1.3,4.3-2.6,8.5-4,13.1,2.2,0,4.2-.2,6.1,0,1.8.2,2.6-.5,3-2.2,1-4.6,2.4-9,3.8-13.3ZM119.3,115c2.6,0,4.6-.2,6.7,0,1.3,0,1.8-.3,2.1-1.6,2.6-8.5,5.1-16.8,7.7-25.3.3-1,.8-1.4,1.8-1.4h8.8c.5,0,1.3-.3,1.4-.6.8-2.6,1.6-5.1,2.4-7.8h-31.8c-.5,0-1.1.3-1.1.8-.8,2.4-1.4,5-2.2,7.7h12.8c-2.9,9.6-5.6,18.9-8.5,28.3ZM70.2,76.3h7.7c.3,0,.8-.2.8-.5.8-2.4,1.6-5,2.6-7.7h-7.5c-.3,0-1,.5-1.1.8-.8,2.4-1.6,4.8-2.4,7.4Z"/>
    </g>
  </g>
</svg>