<?xml version="1.0" encoding="UTF-8"?>
<svg xmlns="http://www.w3.org/2000/svg" version="1.1" xmlns:v="https://vecta.io/nano" viewBox="0 0 250 250">
  <defs>
    <style>
      .cls-1 {
        fill: #004a30;
      }
    </style>
  </defs>
  <!-- Generator: Adobe Illustrator 28.7.1, SVG Export Plug-In . SVG Version: 1.2.0 Build 142)  -->
  <g>
    <g id="Layer_1">
      <path class="cls-1" d="M44.1,99.8l-5,29.3c-1.2,6.6-2.8,10-7.3,10s-5.7-2.5-6.8-3.7l-10.1,11.6c2.2,1.8,8.1,6.4,18.3,6.4s11.7-1.6,15.8-4.7c5.4-4.1,7-7.5,8.3-13.8l5.5-35.1h-18.7s0,0,0,0ZM137.9,106.2l2.9-10.8-18.7,7.3-.9,3.5-9.6,12.2h6.4l-4.1,15.5c-.8,2.9-1.5,5.5-1.5,7.8,0,2,.4,3.8,1,5.3,1.7,4.2,5.9,6.3,11.1,6.3,11,0,16-9.7,17.1-12.1h0c0-.2-.1-.3-.2-.3h0c-.6.4-1.9.9-4.4,1-3.3.1-6.9-1.7-6.9-4.5s.4-3.1.9-4.7l3.8-14.2h9.2l3.2-12.2h-9.1s0,0,0,0ZM172.4,107.2c-19,0-28.5,14-28.5,26.5s8.2,19.9,19.9,19.9,16.8-9.7,17.9-12.2h0c0-.2-.1-.3-.2-.3h0c-1.1.5-4.2,1.7-8.9,1.4-6.6-.4-10.9-6.3-10.9-11.6s3.9-14,13.2-14,7.9,2.3,9.6,3.6l2.8-10.7c-6.3-2.5-12-2.8-14.8-2.8h0ZM87.1,152.4h17.6c-.3-.4-1.4-2.2-1.9-5.1-.5-3.2.4-7.3.4-7.3l7.4-27.7c-2.4-1.3-4.2-2.1-7.5-3.1-3.4-1-7.4-1.7-11.4-1.7-21.4,0-30.2,18.5-30.2,30.1,0,0-1.3,16,12.2,15.8,9.5,0,12.6-9.4,12.6-9.4l.4-.9.2-.3c-.2,1.2-.5,2.9-.5,4.9s.4,3.5.7,4.7h0ZM82.7,141.8c-2.7,0-5.2-1.2-5.2-5.9s2.7-17.4,12.6-17.4,2.1.2,2.9.5l-5.1,19.1c-.2.6-.3,1.6-.4,2-.8.7-2,1.7-4.8,1.7ZM207.9,154.1c-13.4,0-22.9-7.3-22.9-20.6s9.9-26.9,26.9-26.9,22.7,9.6,22.7,21.2c0,10.4-7,26.4-26.7,26.4ZM217.7,125.5c0-6.4-3.7-7.4-5.8-7.4-7.6,0-10.1,12.8-10.1,17.4s.3,3.9,1.5,5.3c.9,1.1,2.5,1.9,4.3,1.9,7.7,0,10.1-13.1,10.1-17.2h0Z"/>
    </g>
  </g>
</svg>