<?xml version="1.0" encoding="UTF-8"?>
<svg xmlns="http://www.w3.org/2000/svg" version="1.1" viewBox="0 0 300 300">
  <!-- Generator: Adobe Illustrator 28.7.1, SVG Export Plug-In . SVG Version: 1.2.0 Build 142)  -->
  <g>
    <g id="Layer_1">
      <g id="Layer_1-2" data-name="Layer_1">
        <g id="Nissan_Badge">
          <path d="M169.6,157.9c-.2,0-.9,0-1.3,0h-24.2v5.6h24.6c.2,0,1.6,0,1.9,0,5-.5,7.3-4.6,7.3-8.3s-2.4-7.8-6.9-8.2c-.9,0-1.6,0-2,0h-16.1c-.7,0-1.5,0-1.8-.1-1.3-.3-1.7-1.5-1.7-2.4s.5-2,1.8-2.3c.4,0,.8-.1,1.7-.1h23.2v-5.5h-23.6c-1,0-1.7,0-2.3.1-4,.6-6.9,3.8-6.9,7.9s2.1,7.3,6.8,8c.8,0,2,0,2.5,0h15.7c.3,0,1,0,1.1,0,1.8.2,2.4,1.5,2.4,2.7s-.7,2.3-2.3,2.6Z"/>
          <path d="M123.7,157.9c-.2,0-.9,0-1.2,0h-24.3v5.6h24.6c.2,0,1.6,0,1.9,0,5-.5,7.3-4.6,7.3-8.3s-2.4-7.8-6.9-8.2c-.9,0-1.6,0-2,0h-16.1c-.7,0-1.5,0-1.8-.1-1.3-.3-1.7-1.5-1.7-2.4s.5-2,1.8-2.3c.4,0,.8-.1,1.7-.1h23.2v-5.5h-23.6c-1,0-1.7,0-2.3.1-4,.6-6.9,3.8-6.9,7.9s2.1,7.3,6.8,8c.8,0,2,0,2.5,0h15.7c.3,0,1,0,1.1,0,1.8.2,2.4,1.5,2.4,2.7s-.7,2.3-2.3,2.6h0Z"/>
          <rect x="79.5" y="136.2" width="6.1" height="27.5"/>
          <polygon points="66 163.7 66 136.2 59.9 136.2 59.9 156.7 39.6 136.2 31.8 136.2 31.8 163.7 37.9 163.7 37.9 143.1 58.3 163.7 66 163.7"/>
          <polygon points="262.2 136.2 262.2 156.7 241.9 136.2 234.1 136.2 234.1 163.7 240.2 163.7 240.2 143.1 260.6 163.7 268.3 163.7 268.3 136.2 262.2 136.2"/>
          <path d="M202.3,136.2l-17.2,27.5h7.4l3.1-4.9h20l3.1,4.9h7.4l-17.2-27.5h-6.6ZM212.5,153.6h-13.7l6.9-11.1,6.9,11.1Z"/>
          <path d="M65.7,120.6c12.3-35.9,46.2-60,84.4-60s72.1,24.1,84.4,60v.3h27v-3.2l-11.2-1.3c-6.9-.8-8.4-3.8-10.2-7.7l-.5-.9c-16.1-34.4-51.3-56.6-89.5-56.6s-73.3,22.2-89.5,56.7l-.5.9c-1.9,3.8-3.3,6.9-10.2,7.7l-11.2,1.3v3.2h26.8v-.4Z"/>
          <path d="M234.5,179.1v.3c-12.4,35.9-46.3,60-84.5,60s-72.1-24.1-84.4-60v-.3h-26.9v3.2l11.2,1.3c6.9.8,8.4,3.8,10.2,7.7l.5.9c16.1,34.4,51.3,56.7,89.5,56.7s73.3-22.2,89.5-56.6l.5-.9c1.9-3.8,3.3-6.9,10.2-7.7l11.2-1.3v-3.2h-26.9Z"/>
        </g>
      </g>
    </g>
  </g>
</svg>