<?xml version="1.0" encoding="UTF-8"?>
<svg xmlns="http://www.w3.org/2000/svg" version="1.1" xmlns:svg="http://www.w3.org/2000/svg" viewBox="0 0 300 300">
  <defs>
    <style>
      .cls-1 {
        fill: #12abdb;
      }

      .cls-1, .cls-2 {
        fill-rule: evenodd;
      }

      .cls-2 {
        fill: #0070ad;
      }
    </style>
  </defs>
  <!-- Generator: Adobe Illustrator 28.7.1, SVG Export Plug-In . SVG Version: 1.2.0 Build 142)  -->
  <g>
    <g id="svg3709">
      <path id="path3676" class="cls-1" d="M276.4,156c6,0,10.7-4.9,10.7-10.7-.4-2.5-1.3-7.2-7.9-7.2s-9.6,10.1-15.5,16.6c-.5,3.7-4,7-8.3,7.5,1.1,1.1,3.4,1.7,6.3,1.7,5.2,0,11.5-1.6,14.8-4.8-4.4,0-7.2-2.8-7.5-6.7,2.1,2.6,4.6,3.6,7.4,3.6"/>
      <path id="path3678" class="cls-2" d="M230.2,140c0-3.2-.2-5.3-2.3-5.3s-1.4.2-2.3.5c.7,10.8-1.7,20.3-4.7,20.3s-2-23.2-10.2-23.2-8.7,18.5-9.6,18.5-.7-4.9-.6-8.6c.3-1.8.5-3.4.5-4.6,0-1.7-.7-4.7-4.6-3.2.1,13.2-2.5,21.2-5.5,21.2-4.4,0-4.4-12-4.4-15.3s.2-7.5-4.6-6c-.7,11.5-3.7,20.2-5.6,20.2-2.8,0-2.3-19.9-8.4-19.9s-7.2,18.9-8.4,18.9c-2.1,0,.6-21.2-7.3-21.2s-5.8,7.1-7.5,15c-.3,1.5-.6,1.6-.7-.1,0-1.5,0-3,0-4.4,2-8-.4-10.9-4.1-8.8,1.2,14.7-5.6,21.9-10.7,21.9s-3.4-.8-4.5-2.1c6.2-3.8,9-8.2,9-12.5s-2.7-7.3-7.1-7.3-9.6,6.3-9.6,11.7.5,5.4,1.4,7.4c-2.1,1-4.1,1.9-6,2.7-.2-5.6-.8-11.4-1.3-16.8-3.3-.9-4.2.7-4.5,3.6-.6,6.7-3.1,10.8-5.2,10.8s-2.6-2-2.8-4.1c-.6-10.7,8.1-13.7,12.6-12.1.9-2.4,0-4.1-4.2-4.1s-8.7,3-11.4,6.9c-1.8,2.6-3.9,4.4-6.7,6.6,0-.6.1-1.3.1-1.9,0-7.5-4.1-10.8-8-10.8s-5.3,1.9-6.4,4.9c-.3-3-.9-4.3-2.6-4.3s-1.8.2-2.9.7c.5,1.7.7,5.4.7,7.8,0,9.1-2.6,13.1-5.1,13.1s-3.3-10.7-3.6-14.9c-.4-.2-.9-.3-1.4-.3-2.6,0-2.9,3.5-3.6,6.7-.7,3.5-2.7,8-5.8,8s-3-1.8-3.1-4.9c-.3-6.4,5-14,13.4-11.6,1.1-2.6-.6-4.5-4.1-4.5-6.1,0-11.1,4.6-13.3,10-2.2,5-6.1,12.2-14.1,12.2-5.6,0-9.9-4.9-9.9-15.2s5.6-17.3,11.5-17.3,5.1,4.1,4.8,7.9c2.2,1.7,5.7.1,5.7-4.2s-2.4-8-10.2-8c-9.7,0-18.2,9.7-18.2,22.3s6.2,19.5,15,19.5,10.8-3.2,14.4-9c.9,5.1,4.4,7.3,7,7.3,4.2,0,7-2.7,8.5-6.5.9,3.7,2.9,6.5,6.2,6.5s4.1-1.2,5.5-3.1c-.5,12.9-1.2,21.2,6.4,19.6-1.2-3.7-1.6-10.4-1.6-16.4,0-16.5,2.7-21.9,6.1-21.9s3.3,3.1,3.3,6.5-.2,3.9-.6,5.7c-4.2,2.6-7.5,4.7-7.5,7.4s1.6,2.3,2.9,2.3c3.2,0,7.1-3.1,9.2-9.1,1.9-1.1,3.7-2.4,5.5-4.2,0,.6,0,1.2,0,1.8,0,5.9,2.6,9.5,6.7,9.5s5.7-2.3,7.4-5.7c.1,2,.2,3.8.2,5.5-6.6,3-13.8,6.1-13.8,14.7s3.2,7.8,7.3,7.8c9.1,0,11.2-9.6,11.3-20.8,3-1.3,5.2-2.3,7.7-3.5,2.2,2.7,5.2,4.1,7.9,4.1,5.1,0,9-2.7,12.1-8.3.5,4.2,1.6,8.3,3.9,8.3,4.1,0,4.9-21.3,7.9-21.3s.4,23.1,6.6,23.1,6.2-20.3,8.8-20.3,1.9,18.6,7.7,18.6,5.9-3.4,7.4-10.5c.7,4.7,3.1,10.5,7.8,10.5s5-2.7,6.9-6.4c.5,3.8,1.6,6.4,3.6,6.4,5.3,0,5.2-21.3,9.4-21.3s2.3,21.3,10.1,21.3,5.5-3.2,6.6-7.2c1.4,5.9,3.8,7.2,5.7,7.2s2.1-.4,3.4-1.9c-6.1-2.6-5.6-12.2-5.6-18.4M101.5,176.6c-1.9,0-2.9-1.8-2.9-3.8,0-5.5,4-8.4,9-10.9-.2,11.9-3,14.7-6.1,14.7M126.1,137.9c1.8,0,2.9,1.7,2.7,4.1-.2,2.8-2.3,6.1-5.9,8.7-1.9-5.4-.5-12.8,3.2-12.8M184.3,129.8c1.7,0,3-1.6,3-3.3,0-1.8-1.2-3.2-3-3.1-1.8,0-3.2,1.6-3.2,3.4,0,1.8,1.4,3.2,3.2,3.1M227.9,130.7c1.6,0,2.9-1.5,2.9-3.2s-1.3-3-2.9-3c-1.6,0-2.9,1.5-2.9,3.2,0,1.7,1.3,3,2.9,3M287.1,144.9c-.1-6.8-3.3-12.4-8.3-17-3.8-3.4-8.2-6-12.9-8-.4-.2-.8-.3-1.1-.5-5.8,6.9-25.7,12.1-25.7,26.6s3.6,11,8.8,13.1c3,1.2,6.1,1.2,9.1.2,2.7-.9,4.9-2.6,6.8-4.6,5.9-6.5,8.2-16.5,15.4-16.5s7.5,4.7,7.9,7.2c0,0,0-.2,0-.4"/>
    </g>
  </g>
</svg>